PathFileType	4	(X/Y/Z)	/home/abdul/Desktop/myosuite/custom_workspace/IK/output/S1_12_1.trc
DataRate	CameraRate	NumFrames	NumMarkers	Units	OrigDataRate	OrigDataStartFrame	OrigNumFrames
200.0	200.0	22	3	mm	200.0	2634	3511
Frame#	Time	V_Shoulder			V_Elbow			V_Wrist		
		X1	Y1	Z1	X2	Y2	Z2	X3	Y3	Z3

2634	13.165	-191.366734414416	545.7533803077248	371.7863563100215	-293.7680116531342	399.14578940453305	39.10616446383222	-195.86200383838653	154.6290170345426	108.49192321719968
2635	13.17	-191.35694007251755	546.2454003744741	371.8913518449537	-294.0230501890727	399.33454314291555	39.487258149410614	-196.25513855855928	154.97537909753606	109.76826217142036
2636	13.175	-191.34733343589642	546.7394984190449	371.9958571595914	-294.2762296017213	399.52324280205954	39.86816613005268	-196.64418550352858	155.32909595556208	111.0528040604545
2637	13.18	-191.33790918253192	547.2355680535098	372.09984059465575	-294.5274667683194	399.71180545344913	40.248825707396406	-197.02899491745865	155.6901424454784	112.34513973249635
2638	13.185	-191.32866146142683	547.7335005253117	372.20327273457434	-294.77668161742747	399.90014086810163	40.62918307403738	-197.40942512591755	156.05847877073342	113.64486835386126
2639	13.19	-191.3195839120599	548.2331848423012	372.306126459071	-295.0237971104033	400.0881515339016	41.00919342020585	-197.785342639651	156.4340504879118	114.95159808488654
2640	13.195	-191.31066968441405	548.7345079013784	372.40837698678337	-295.26873921819663	400.27573269930747	41.38882100823807	-198.15662223355002	156.81678854288302	116.26494670480793
2641	13.2	-191.30191145946802	549.2373546205904	372.51000191081494	-295.51143689394104	400.4627724439848	41.76803921454302	-198.5231470010326	157.20660935693218	117.58454218417525
2642	13.205	-191.293301470035	549.741608074541	372.6109812261596	-295.75182204180385	400.64915177683673	42.14683053888308	-198.8848083841433	157.60341496305352	118.91002320361869
2643	13.21	-191.28483152183108	550.2471496329532	372.71129734896573	-295.9898294825442	400.8347447618172	42.52518658090634	-199.24150617975513	158.00709319238493	120.24103961802695
2644	13.215	-191.27649301465567	550.7538591022238	372.81093512763783	-296.22539691621125	401.0194186718194	42.90310798398983	-199.59314852233643	158.4175179105613	121.57725286545116
2645	13.22	-191.26827696356497	551.2616148697965	372.9098818458057	-296.4584648824018	401.2030341708361	43.28060434657482	-199.9396518438188	158.83454930356248	122.91833632030273
2646	13.225	-191.26017401992053	551.7702940511766	373.00812721721974	-296.68897671848146	401.3854455244838	43.65769410129951	-200.2809408111725	159.2580342124313	124.26397559066484
2647	13.23	-191.25217449219645	552.279772639397	373.1056633726616	-296.91687851615814	401.5665008388762	44.03440436235715	-200.61694824236244	159.6878065160385	125.61386875978977
2648	13.235	-191.2442683664306	552.7899256567455	373.20248483899013	-297.14211907678464	401.7460423277181	44.41077074163134	-200.94761500141868	160.1236875608747	126.96772657210101
2649	13.24	-191.23644532620756	553.3006273085449	373.29858851047146	-297.3646498657515	401.92390660737397	44.7868371342827	-201.27288987341447	160.5654866366578	128.32527256426286
2650	13.245	-191.22869477206663	553.8117511387817	373.39397361256925	-297.5844249663203	402.0999250195422	45.162655474582266	-201.59272942019675	161.01300149635304	129.68624314211712
2651	13.25	-191.22100584022937	554.3231701873617	373.48864165840286	-297.8014010332304	402.27392398103774	45.538285462906316	-201.90709781776263	161.46601891902165	131.05038760451683
2652	13.255	-191.21336742054925	554.8347571487704	373.5825963981044	-298.0155372464052	402.445725360059	45.91379426492439	-202.21596667621887	161.92431531373202	132.41746811530845
2653	13.26	-191.20576817358983	555.3463845319064	373.67584376133544	-298.22679526506437	402.615146878176	46.28925618412699	-202.51931484329913	162.3876573625966	133.78725962492533
2654	13.265	-191.1981965467447	555.8579248208503	373.7683917932466	-298.4351391825409	402.7820025371459	46.664752308949936	-202.81712819244856	162.85580270083	135.159549743257
2655	13.27	-191.19064078932016	556.3692506363278	373.8602505841905	-298.64053548208284	402.94610306952023	47.04037013586035	-203.1093993965132	163.32850063156505	136.53413856564794
